PathFileType	4	(X/Y/Z)	C:\Git\research_data\Projects\torsion_deformities_healthy_kinematics\simulations\TD01\pre\dynamic_13_l\marker_experimental.trc
DataRate	CameraRate	NumFrames	NumMarkers	Units	OrigDataRate	OrigDataStartFrame	OrigNumFrames
200	200	4	30	mm	200	321	513
Frame#	Time	C7			T10			CLAV			STRN			RBAK			LASI			RASI			SACR			RT1			RT2			RT3			RKNE			RS1			RS2			RS3			RANK			RHEE			RTOE			LT1			LT2			LT3			LKNE			LS1			LS2			LS3			LANK			LHEE			LTOE			RHJC			LHJC		
		X1	Y1	Z1	X2	Y2	Z2	X3	Y3	Z3	X4	Y4	Z4	X5	Y5	Z5	X6	Y6	Z6	X7	Y7	Z7	X8	Y8	Z8	X9	Y9	Z9	X10	Y10	Z10	X11	Y11	Z11	X12	Y12	Z12	X13	Y13	Z13	X14	Y14	Z14	X15	Y15	Z15	X16	Y16	Z16	X17	Y17	Z17	X18	Y18	Z18	X19	Y19	Z19	X20	Y20	Z20	X21	Y21	Z21	X22	Y22	Z22	X23	Y23	Z23	X24	Y24	Z24	X25	Y25	Z25	X26	Y26	Z26	X27	Y27	Z27	X28	Y28	Z28	X29	Y29	Z29	X30	Y30	Z30	

321	1.600000	1237.467285	1239.019897	207.795944	1203.282104	1050.253784	202.859238	1357.445190	1193.181763	206.064850	1411.316284	1063.736694	197.800446	1205.971680	1159.341309	297.509705	1343.893799	845.947510	92.690453	1354.850220	862.179565	292.492096	1186.422852	887.597656	203.359650	1375.443115	671.655396	324.173737	1356.135132	607.896545	328.476898	1404.320557	614.171326	307.153534	1415.630005	478.920410	286.622223	1371.908813	344.417725	316.486023	1351.526489	281.898376	307.437714	1401.655151	286.466370	301.418732	1363.361938	89.736038	275.014069	1314.436035	77.372337	225.288376	1501.205933	67.199242	249.532333	1304.010376	647.036621	49.021076	1283.943115	582.867981	50.642784	1334.824829	588.469604	55.651657	1309.433228	427.887482	57.422417	1176.657715	361.492004	41.219994	1119.913940	329.883881	55.519886	1161.028076	300.446411	61.307327	983.337402	232.580170	92.439087	962.084290	268.146698	133.434250	1001.117249	90.824036	133.553070	1290.636723	800.476655	274.068520	1282.608691	788.583039	127.669066	
322	1.605000	1243.881958	1239.777710	208.032272	1209.710571	1051.035400	203.135559	1363.853638	1193.967041	206.361359	1417.657471	1064.482788	198.090134	1212.319336	1160.106689	297.756531	1350.271973	846.731445	93.160629	1360.938354	862.888855	293.048798	1192.670410	888.330627	203.688156	1380.004150	671.181091	324.795013	1359.574707	607.625732	328.895142	1408.060181	613.159485	308.094055	1418.568359	478.296295	287.031464	1372.939697	344.211304	316.345459	1352.105225	281.920349	306.999420	1402.447754	286.032898	301.727478	1363.454956	89.771301	274.769745	1314.515991	77.462654	225.067429	1501.318481	67.154732	249.506912	1312.899048	648.165771	49.111671	1293.793945	583.725586	50.823059	1344.593262	590.119873	55.457455	1322.302856	429.080841	57.344025	1189.868286	362.849701	41.445995	1132.970947	331.548859	55.840656	1173.977661	301.938690	61.748138	995.760376	234.705048	93.039413	974.106628	269.885284	134.100632	1015.180298	93.008568	133.471863	1296.756889	801.169557	274.496929	1288.941625	789.331012	128.038743	
323	1.610000	1250.278076	1240.554077	208.254211	1216.104736	1051.835815	203.413376	1370.237915	1194.759888	206.636200	1423.959106	1065.232422	198.352692	1218.643066	1160.895264	297.989227	1356.618286	847.573608	93.623634	1366.991699	863.582336	293.596710	1198.883789	889.094482	204.017029	1384.430786	670.704590	325.420380	1362.906616	607.372986	329.295013	1411.688843	612.194824	309.027252	1421.393311	477.683472	287.408478	1374.090820	344.023224	316.237915	1352.833252	281.948792	306.652679	1403.337646	285.640472	301.956635	1363.571045	89.817070	274.541107	1314.603760	77.571228	224.865768	1501.430664	67.099014	249.469711	1321.708740	649.426941	49.188744	1303.592529	584.726501	50.989780	1354.309814	591.919495	55.283512	1335.087280	430.481659	57.275417	1203.061035	364.298157	41.762600	1146.063721	333.207825	56.231869	1186.993896	303.466125	62.169308	1008.376038	236.464752	93.676628	986.245178	271.224274	134.805283	1029.849365	94.970421	133.558578	1302.837627	801.860898	274.894085	1295.237236	790.131625	128.377833	
324	1.615000	1256.656738	1241.345459	208.462967	1222.466553	1052.651855	203.692978	1376.599121	1195.557495	206.890533	1430.223999	1065.983887	198.590515	1224.945312	1161.704346	298.209625	1362.937134	848.468933	94.083221	1373.012085	864.261353	294.136017	1205.064575	889.886169	204.343460	1388.755005	670.249023	326.040100	1366.193604	607.159363	329.670898	1415.259033	611.313782	309.919464	1424.125610	477.090515	287.749115	1375.403687	343.849976	316.164490	1353.749756	281.976929	306.403656	1404.359741	285.286163	302.093201	1363.711914	89.873390	274.330994	1314.700439	77.698837	224.686722	1501.543823	67.033867	249.424484	1330.439453	650.809021	49.251339	1313.345337	585.858643	51.137474	1363.980835	593.857788	55.126873	1347.773315	432.078217	57.213173	1216.217163	365.812775	42.153294	1159.175659	334.830383	56.674618	1200.064941	305.005066	62.565506	1021.180237	237.841324	94.339470	998.504761	272.157684	135.531937	1045.066406	96.693619	133.815414	1308.881633	802.551830	275.261915	1301.500090	790.981311	128.690659	
